<svg xmlns="http://www.w3.org/2000/svg" viewBox="0 0 900 520" role="img" aria-label="게임 카테고리 배경">
  <defs>
    <linearGradient id="bg" x1="0" x2="1" y1="0" y2="1">
      <stop offset="0" stop-color="#060914"/>
      <stop offset=".5" stop-color="#0d2b57"/>
      <stop offset="1" stop-color="#101318"/>
    </linearGradient>
    <radialGradient id="pulse" cx=".35" cy=".35" r=".62">
      <stop offset="0" stop-color="#7ea6ff" stop-opacity=".34"/>
      <stop offset=".5" stop-color="#314f85" stop-opacity=".14"/>
      <stop offset="1" stop-color="#000" stop-opacity="0"/>
    </radialGradient>
  </defs>
  <rect width="900" height="520" fill="url(#bg)"/>
  <rect width="900" height="520" fill="url(#pulse)"/>
  <g opacity=".18" stroke="#fff" stroke-width="2">
    <path d="M80 100h740M80 170h740M80 240h740M80 310h740M80 380h740"/>
    <path d="M140 54v414M250 54v414M360 54v414M470 54v414M580 54v414M690 54v414M800 54v414"/>
  </g>
  <path d="M246 224c38-38 105-31 136 12h136c31-43 98-50 136-12 37 37 57 129 21 165-23 23-59 12-88-16l-28-27H345l-28 27c-29 28-65 39-88 16-36-36-16-128 17-165z" fill="#fff" opacity=".14"/>
  <path d="M310 286h74M347 249v74" stroke="#fff" stroke-width="18" stroke-linecap="round" opacity=".22"/>
  <circle cx="562" cy="270" r="17" fill="#fff" opacity=".22"/>
  <circle cx="620" cy="312" r="17" fill="#fff" opacity=".22"/>
</svg>
